# xmcd
#
# Track frame offsets:
#	150
#	36145
#	49260
#	70012
#	96932
#	119052
#	151287
#	162735
#
# Disc length: 2544 seconds
#
# Revision: 11
# Processed by: cddbd v1.5.2PL0 Copyright (c) Steve Scherf et al.
# Submitted via: Jack! The Knife 20 Magnifico
#
DISCID=6e09ee08
DTITLE=Black Sabbath - Paranoid
DYEAR=1970
DGENRE=Metal
TTITLE0=War Pigs
TTITLE1=Paranoid
TTITLE2=Planet Caravan
TTITLE3=Iron Man
TTITLE4=Electric Funeral
TTITLE5=Hand Of Doom
TTITLE6=Rat Salad
TTITLE7=Fairies Wear Boots
EXTD=Rodger Bain
EXTT0=Iommi, Butler, Ward, Osbourne
EXTT1=Iommi, Butler, Ward, Osbourne
EXTT2=Iommi, Butler, Ward, Osbourne
EXTT3=Iommi, Butler, Ward, Osbourne
EXTT4=Iommi, Butler, Ward, Osbourne
EXTT5=Iommi, Butler, Ward, Osbourne
EXTT6=Iommi, Butler, Ward, Osbourne
EXTT7=Iommi, Butler, Ward, Osbourne
PLAYORDER=
